<svg width="72" height="72" viewBox="0 0 72 72" fill="none" xmlns="http://www.w3.org/2000/svg">
<path d="M36.3869 33.4462C47.5081 33.4462 64.1489 35.0938 66.2907 42.9199C68.1031 49.4279 68.0207 55.8535 67.2793 58.2425C66.5379 60.6316 57.4761 72 36.3869 72C15.2976 72 6.23587 60.6316 5.49445 58.2425C4.75304 55.8535 4.67066 49.4279 6.48301 42.9199C8.62489 35.0938 25.2656 33.4462 36.3869 33.4462Z" fill="url(#paint0_linear)"/>
<path d="M64.808 42.2608C61.8423 34.929 42.9773 34.0228 36.3869 34.0228C29.7965 34.0228 10.8492 34.8466 7.96589 42.2608C5.00022 49.5926 14.9682 59.8901 36.3869 59.8901C57.8057 59.8901 67.7736 49.5926 64.808 42.2608Z" fill="#FE8442"/>
<path d="M12.4968 43.5789C12.4968 37.9771 24.4419 33.4462 36.387 33.4462C48.332 33.4462 60.2771 37.9771 60.2771 43.5789C60.2771 49.1808 48.332 53.7117 36.387 53.7117C24.4419 53.7117 12.4968 49.1808 12.4968 43.5789Z" fill="#C7411C"/>
<path d="M36.387 52.4759C50.8035 52.4759 59.0414 47.3684 59.7829 44.5675C60.5243 41.7666 60.5243 27.5149 59.5357 21.1716C58.5472 14.8284 50.5563 6.26086 36.387 6.26086C22.2177 6.26086 14.2268 14.8284 13.2383 21.1716C12.2497 27.5149 12.1673 41.7666 12.9911 44.5675C13.8149 47.3684 21.9705 52.4759 36.387 52.4759Z" fill="url(#paint1_linear)"/>
<path d="M40.7529 9.22656C39.8467 9.22656 39.4348 8.6499 36.3868 8.6499C33.3387 8.6499 32.7621 9.22656 32.0207 9.22656C31.2792 9.22656 31.2792 8.07324 32.0207 8.07324C32.7621 8.07324 33.0916 8.32038 36.3868 8.32038C39.682 8.32038 40.0115 8.07324 40.7529 8.07324C41.4943 8.07324 41.412 9.22656 40.7529 9.22656Z" fill="#C7411C"/>
<path d="M36.387 47.0389C42.9774 47.0389 51.792 44.5675 52.863 42.0961C53.3572 41.0252 52.9453 37.4829 52.863 33.8581C52.7806 29.4096 52.7806 24.7964 52.0392 23.9726C50.7211 22.4897 46.5197 25.0435 36.387 25.0435C26.2543 25.0435 22.0529 22.4897 20.7348 23.9726C19.9934 24.7964 20.0758 29.4096 19.911 33.8581C19.8287 37.5652 19.4168 41.1076 19.911 42.2609C20.982 44.7323 29.7966 47.0389 36.387 47.0389Z" fill="#6FDA44"/>
<path d="M53.275 43.2494C52.204 45.7208 42.9775 48.0274 36.3871 48.0274C29.7967 48.0274 20.5702 45.7208 19.4993 43.2494C18.4283 40.778 18.8402 25.2906 20.1583 23.8078C20.4054 23.4783 20.8997 23.3959 21.4764 23.3959C20.4054 26.9382 20.2407 39.7894 21.1469 42.0137C22.2178 44.4851 29.7967 46.2151 36.3871 46.2151C42.9775 46.2151 50.5564 44.4851 51.6274 42.0137C52.5336 39.7894 52.3688 26.9382 51.2979 23.3959C51.8745 23.3959 52.2864 23.5606 52.6159 23.8078C53.934 25.373 54.2635 40.8604 53.275 43.2494Z" fill="#FE8442"/>
<path d="M48.3325 9.83094C46.3584 8.61159 44.2928 8.37623 43.719 9.30525C43.1452 10.2343 44.2804 11.9758 46.2546 13.1952C48.2287 14.4145 50.2943 14.6499 50.8681 13.7209C51.4419 12.7919 50.3067 11.0503 48.3325 9.83094Z" fill="#FE8442"/>
<path d="M36.3869 71.9999C57.4761 71.9999 66.5379 60.6315 67.2793 58.2425C67.8559 56.3478 68.0207 51.8993 67.1969 46.9565C67.1969 51.1579 67.2793 55.1945 66.2907 57.5011C65.2198 59.8077 57.5585 70.1876 36.4692 70.1876C15.38 70.1876 7.55394 59.8077 6.483 57.5011C5.49444 55.1945 5.57682 51.1579 5.57682 46.9565C4.75303 51.8993 4.91779 56.3478 5.49444 58.2425C6.23586 60.6315 15.2976 71.9999 36.3869 71.9999Z" fill="#C7411C"/>
<path d="M32.0209 9.22656C32.5214 9.22656 32.9271 8.96838 32.9271 8.6499C32.9271 8.33142 32.5214 8.07324 32.0209 8.07324C31.5205 8.07324 31.1147 8.33142 31.1147 8.6499C31.1147 8.96838 31.5205 9.22656 32.0209 9.22656Z" fill="#CF5821"/>
<path d="M40.7531 9.22656C41.2536 9.22656 41.6593 8.96838 41.6593 8.6499C41.6593 8.33142 41.2536 8.07324 40.7531 8.07324C40.2526 8.07324 39.8469 8.33142 39.8469 8.6499C39.8469 8.96838 40.2526 9.22656 40.7531 9.22656Z" fill="#CF5821"/>
<path d="M36.3871 0C33.5038 0 31.1147 2.38901 31.1147 5.27231V8.5675C31.1147 8.9794 31.5266 9.14416 32.0209 9.14416C32.5152 9.14416 32.9271 8.9794 32.9271 8.5675V5.27231C32.9271 3.37757 34.4923 1.81236 36.3871 1.81236C38.2818 1.81236 39.847 3.37757 39.847 5.27231V8.5675C39.847 8.9794 40.2589 9.14416 40.7532 9.14416C41.2475 9.14416 41.6594 8.9794 41.6594 8.5675V5.27231C41.6594 2.38901 39.2703 0 36.3871 0Z" fill="url(#paint2_linear)"/>
<path d="M38.918 0.811929C38.4922 0.548933 38.0501 0.492632 37.9306 0.686177C37.8111 0.879721 38.0593 1.24982 38.4851 1.51282C38.9109 1.77581 39.353 1.83211 39.4726 1.63857C39.5921 1.44503 39.3438 1.07492 38.918 0.811929Z" fill="#FE8442"/>
<g filter="url(#filter0_d)">
<path d="M37.8315 38.7064C37.8315 38.1214 38.3316 37.6613 38.9146 37.7099L45.1225 38.2272C45.6408 38.2704 46.0395 38.7037 46.0395 39.2238V39.4355C46.0395 39.9556 45.6408 40.3888 45.1225 40.432L38.9146 40.9493C38.3316 40.9979 37.8315 40.5378 37.8315 39.9528V38.7064Z" fill="white"/>
</g>
<g filter="url(#filter1_d)">
<path d="M26.8877 37.1718C26.8877 36.6517 27.2864 36.2184 27.8046 36.1752L34.0126 35.6579C34.5956 35.6093 35.0956 36.0694 35.0956 36.6544V39.9528C35.0956 40.5378 34.5956 40.9979 34.0126 40.9493L27.8047 40.432C27.2864 40.3888 26.8877 39.9555 26.8877 39.4354V37.1718Z" fill="white"/>
</g>
<defs>
<filter id="filter0_d" x="29.8315" y="29.7064" width="24.2079" height="19.2465" filterUnits="userSpaceOnUse" color-interpolation-filters="sRGB">
<feFlood flood-opacity="0" result="BackgroundImageFix"/>
<feColorMatrix in="SourceAlpha" type="matrix" values="0 0 0 0 0 0 0 0 0 0 0 0 0 0 0 0 0 0 127 0"/>
<feOffset/>
<feGaussianBlur stdDeviation="4"/>
<feColorMatrix type="matrix" values="0 0 0 0 1 0 0 0 0 1 0 0 0 0 1 0 0 0 0.32 0"/>
<feBlend mode="normal" in2="BackgroundImageFix" result="effect1_dropShadow"/>
<feBlend mode="normal" in="SourceGraphic" in2="effect1_dropShadow" result="shape"/>
</filter>
<filter id="filter1_d" x="18.8877" y="27.6544" width="24.2079" height="21.2985" filterUnits="userSpaceOnUse" color-interpolation-filters="sRGB">
<feFlood flood-opacity="0" result="BackgroundImageFix"/>
<feColorMatrix in="SourceAlpha" type="matrix" values="0 0 0 0 0 0 0 0 0 0 0 0 0 0 0 0 0 0 127 0"/>
<feOffset/>
<feGaussianBlur stdDeviation="4"/>
<feColorMatrix type="matrix" values="0 0 0 0 1 0 0 0 0 1 0 0 0 0 1 0 0 0 0.32 0"/>
<feBlend mode="normal" in2="BackgroundImageFix" result="effect1_dropShadow"/>
<feBlend mode="normal" in="SourceGraphic" in2="effect1_dropShadow" result="shape"/>
</filter>
<linearGradient id="paint0_linear" x1="36.3845" y1="71.586" x2="36.3845" y2="33.0633" gradientUnits="userSpaceOnUse">
<stop stop-color="#E35327"/>
<stop offset="1" stop-color="#F07537"/>
</linearGradient>
<linearGradient id="paint1_linear" x1="36.3686" y1="51.9797" x2="36.3686" y2="5.80181" gradientUnits="userSpaceOnUse">
<stop stop-color="#E35327"/>
<stop offset="1" stop-color="#F07537"/>
</linearGradient>
<linearGradient id="paint2_linear" x1="36.3867" y1="9.04597" x2="36.3867" y2="-0.0908287" gradientUnits="userSpaceOnUse">
<stop stop-color="#E35327"/>
<stop offset="1" stop-color="#F07537"/>
</linearGradient>
</defs>
</svg>
