<svg width="72" height="72" viewBox="0 0 72 72" fill="none" xmlns="http://www.w3.org/2000/svg">
<path d="M36.3869 33.4462C47.5081 33.4462 64.1489 35.0938 66.2907 42.9199C68.1031 49.4279 68.0207 55.8535 67.2793 58.2425C66.5379 60.6316 57.4761 72 36.3869 72C15.2976 72 6.23587 60.6316 5.49445 58.2425C4.75304 55.8535 4.67066 49.4279 6.48301 42.9199C8.62489 35.0938 25.2656 33.4462 36.3869 33.4462Z" fill="url(#paint0_linear)"/>
<path d="M64.808 42.2608C61.8423 34.929 42.9773 34.0228 36.3869 34.0228C29.7965 34.0228 10.8492 34.8466 7.96589 42.2608C5.00022 49.5926 14.9682 59.8901 36.3869 59.8901C57.8057 59.8901 67.7736 49.5926 64.808 42.2608Z" fill="#EDFFFB"/>
<path d="M12.4971 43.5789C12.4971 37.9771 24.4421 33.4462 36.3872 33.4462C48.3323 33.4462 60.2774 37.9771 60.2774 43.5789C60.2774 49.1808 48.3323 53.7117 36.3872 53.7117C24.4421 53.7117 12.4971 49.1808 12.4971 43.5789Z" fill="#779099"/>
<path d="M36.3867 52.4759C50.8032 52.4759 59.0412 47.3684 59.7826 44.5675C60.524 41.7666 60.524 27.5149 59.5355 21.1716C58.5469 14.8284 50.5561 6.26086 36.3867 6.26086C22.2174 6.26086 14.2266 14.8284 13.238 21.1716C12.2495 27.5149 12.1671 41.7666 12.9909 44.5675C13.8147 47.3684 21.9703 52.4759 36.3867 52.4759Z" fill="url(#paint1_linear)"/>
<path d="M40.7532 9.22656C39.847 9.22656 39.4351 8.6499 36.387 8.6499C33.339 8.6499 32.7623 9.22656 32.0209 9.22656C31.2795 9.22656 31.2795 8.07324 32.0209 8.07324C32.7623 8.07324 33.0918 8.32038 36.387 8.32038C39.6822 8.32038 40.0117 8.07324 40.7532 8.07324C41.4946 8.07324 41.4122 9.22656 40.7532 9.22656Z" fill="#779099"/>
<path d="M36.387 47.0389C42.9774 47.0389 51.792 44.5675 52.863 42.0961C53.3572 41.0252 52.9453 37.4829 52.863 33.8581C52.7806 29.4096 52.7806 24.7964 52.0392 23.9726C50.7211 22.4897 46.5197 25.0435 36.387 25.0435C26.2543 25.0435 22.0529 22.4897 20.7348 23.9726C19.9934 24.7964 20.0758 29.4096 19.911 33.8581C19.8287 37.5652 19.4168 41.1076 19.911 42.2609C20.982 44.7323 29.7966 47.0389 36.387 47.0389Z" fill="#6FDA44"/>
<path d="M53.275 43.2494C52.204 45.7208 42.9775 48.0274 36.3871 48.0274C29.7967 48.0274 20.5702 45.7208 19.4993 43.2494C18.4283 40.778 18.8402 25.2906 20.1583 23.8078C20.4054 23.4783 20.8997 23.3959 21.4764 23.3959C20.4054 26.9382 20.2407 39.7894 21.1469 42.0137C22.2178 44.4851 29.7967 46.2151 36.3871 46.2151C42.9775 46.2151 50.5564 44.4851 51.6274 42.0137C52.5336 39.7894 52.3688 26.9382 51.2979 23.3959C51.8745 23.3959 52.2864 23.5606 52.6159 23.8078C53.934 25.373 54.2635 40.8604 53.275 43.2494Z" fill="#EDFFFB"/>
<path d="M48.3325 9.83094C46.3584 8.61159 44.2928 8.37623 43.719 9.30525C43.1452 10.2343 44.2804 11.9758 46.2546 13.1952C48.2287 14.4145 50.2943 14.6499 50.8681 13.7209C51.4419 12.7919 50.3067 11.0503 48.3325 9.83094Z" fill="#EDFFFB"/>
<path d="M36.3871 71.9999C57.4763 71.9999 66.5381 60.6315 67.2795 58.2425C67.8562 56.3478 68.021 51.8993 67.1972 46.9565C67.1972 51.1579 67.2795 55.1945 66.291 57.5011C65.22 59.8077 57.5587 70.1876 36.4695 70.1876C15.3803 70.1876 7.55418 59.8077 6.48325 57.5011C5.49469 55.1945 5.57707 51.1579 5.57707 46.9565C4.75327 51.8993 4.91803 56.3478 5.49469 58.2425C6.23611 60.6315 15.2979 71.9999 36.3871 71.9999Z" fill="#779099"/>
<path d="M32.0209 9.22656C32.5214 9.22656 32.9271 8.96838 32.9271 8.6499C32.9271 8.33142 32.5214 8.07324 32.0209 8.07324C31.5205 8.07324 31.1147 8.33142 31.1147 8.6499C31.1147 8.96838 31.5205 9.22656 32.0209 9.22656Z" fill="#CF5821"/>
<path d="M40.7529 9.22656C41.2533 9.22656 41.659 8.96838 41.659 8.6499C41.659 8.33142 41.2533 8.07324 40.7529 8.07324C40.2524 8.07324 39.8467 8.33142 39.8467 8.6499C39.8467 8.96838 40.2524 9.22656 40.7529 9.22656Z" fill="#CF5821"/>
<path d="M36.3871 0C33.5038 0 31.1147 2.38901 31.1147 5.27231V8.5675C31.1147 8.9794 31.5266 9.14416 32.0209 9.14416C32.5152 9.14416 32.9271 8.9794 32.9271 8.5675V5.27231C32.9271 3.37757 34.4923 1.81236 36.3871 1.81236C38.2818 1.81236 39.847 3.37757 39.847 5.27231V8.5675C39.847 8.9794 40.2589 9.14416 40.7532 9.14416C41.2475 9.14416 41.6594 8.9794 41.6594 8.5675V5.27231C41.6594 2.38901 39.2703 0 36.3871 0Z" fill="url(#paint2_linear)"/>
<path d="M38.9178 0.811929C38.492 0.548933 38.0499 0.492632 37.9304 0.686177C37.8108 0.879721 38.0591 1.24982 38.4849 1.51282C38.9107 1.77581 39.3528 1.83211 39.4723 1.63857C39.5919 1.44503 39.3436 1.07492 38.9178 0.811929Z" fill="#EDFFFB"/>
<g filter="url(#filter0_d)">
<path d="M37.8315 34.6024C37.8315 34.0174 38.3316 33.5573 38.9146 33.6059L45.1225 34.1232C45.6408 34.1664 46.0395 34.5997 46.0395 35.1198V39.4354C46.0395 39.9555 45.6408 40.3888 45.1225 40.432L38.9146 40.9493C38.3316 40.9979 37.8315 40.5378 37.8315 39.9527V34.6024Z" fill="white"/>
</g>
<g filter="url(#filter1_d)">
<path d="M26.8877 34.4358C26.8877 33.9157 27.2864 33.4824 27.8046 33.4392L34.0126 32.9219C34.5956 32.8733 35.0956 33.3334 35.0956 33.9185V39.9528C35.0956 40.5378 34.5956 40.9979 34.0126 40.9493L27.8047 40.432C27.2864 40.3888 26.8877 39.9555 26.8877 39.4355V34.4358Z" fill="white"/>
</g>
<defs>
<filter id="filter0_d" x="29.8315" y="25.6024" width="24.2079" height="23.3505" filterUnits="userSpaceOnUse" color-interpolation-filters="sRGB">
<feFlood flood-opacity="0" result="BackgroundImageFix"/>
<feColorMatrix in="SourceAlpha" type="matrix" values="0 0 0 0 0 0 0 0 0 0 0 0 0 0 0 0 0 0 127 0"/>
<feOffset/>
<feGaussianBlur stdDeviation="4"/>
<feColorMatrix type="matrix" values="0 0 0 0 1 0 0 0 0 1 0 0 0 0 1 0 0 0 0.48 0"/>
<feBlend mode="normal" in2="BackgroundImageFix" result="effect1_dropShadow"/>
<feBlend mode="normal" in="SourceGraphic" in2="effect1_dropShadow" result="shape"/>
</filter>
<filter id="filter1_d" x="18.8877" y="24.9184" width="24.2079" height="24.0345" filterUnits="userSpaceOnUse" color-interpolation-filters="sRGB">
<feFlood flood-opacity="0" result="BackgroundImageFix"/>
<feColorMatrix in="SourceAlpha" type="matrix" values="0 0 0 0 0 0 0 0 0 0 0 0 0 0 0 0 0 0 127 0"/>
<feOffset/>
<feGaussianBlur stdDeviation="4"/>
<feColorMatrix type="matrix" values="0 0 0 0 1 0 0 0 0 1 0 0 0 0 1 0 0 0 0.48 0"/>
<feBlend mode="normal" in2="BackgroundImageFix" result="effect1_dropShadow"/>
<feBlend mode="normal" in="SourceGraphic" in2="effect1_dropShadow" result="shape"/>
</filter>
<linearGradient id="paint0_linear" x1="36.3845" y1="71.586" x2="36.3845" y2="33.0633" gradientUnits="userSpaceOnUse">
<stop stop-color="#B1C7C9"/>
<stop offset="1" stop-color="#CAE8E3"/>
</linearGradient>
<linearGradient id="paint1_linear" x1="36.3684" y1="51.9797" x2="36.3684" y2="5.80181" gradientUnits="userSpaceOnUse">
<stop stop-color="#B1C7C9"/>
<stop offset="1" stop-color="#CAE8E3"/>
</linearGradient>
<linearGradient id="paint2_linear" x1="36.3867" y1="9.04597" x2="36.3867" y2="-0.0908287" gradientUnits="userSpaceOnUse">
<stop stop-color="#B1C7C9"/>
<stop offset="1" stop-color="#CAE8E3"/>
</linearGradient>
</defs>
</svg>
