<svg width="79" height="53" viewBox="0 0 79 53" fill="none" xmlns="http://www.w3.org/2000/svg">
<mask id="mask0" mask-type="alpha" maskUnits="userSpaceOnUse" x="0" y="0" width="79" height="53">
<rect y="0.322754" width="79" height="52" rx="4" fill="#3D59E8"/>
</mask>
<g mask="url(#mask0)">
<path d="M52.8877 21.8986C69.1471 21.8986 93.4759 24.3074 96.6073 35.7491C99.257 45.2638 99.1365 54.6581 98.0526 58.1509C96.9686 61.6436 83.7203 78.2643 52.8877 78.2643C22.0552 78.2643 8.80685 61.6436 7.72289 58.1509C6.63894 54.6581 6.5185 45.2638 9.16817 35.7491C12.2996 24.3074 36.6284 21.8986 52.8877 21.8986Z" fill="url(#paint0_linear)"/>
<path d="M94.4394 34.7855C90.1035 24.0664 62.5229 22.7416 52.8877 22.7416C43.2525 22.7416 15.5514 23.946 11.336 34.7855C7.00022 45.5047 21.5734 60.5596 52.8877 60.5596C84.202 60.5596 98.7752 45.5047 94.4394 34.7855Z" fill="#FEB538"/>
<path d="M17.9604 36.7126C17.9604 28.5227 35.4241 21.8986 52.8878 21.8986C70.3516 21.8986 87.8153 28.5227 87.8153 36.7126C87.8153 44.9025 70.3516 51.5267 52.8878 51.5267C35.4241 51.5267 17.9604 44.9025 17.9604 36.7126Z" fill="#CF5821"/>
<path d="M52.8878 49.7199C73.9647 49.7199 86.0087 42.2527 87.0926 38.1577C88.1766 34.0628 88.1766 13.2267 86.7313 3.95289C85.286 -5.32096 73.6034 -17.8467 52.8878 -17.8467C32.1722 -17.8467 20.4895 -5.32096 19.0443 3.95289C17.599 13.2267 17.4785 34.0628 18.6829 38.1577C19.8873 42.2527 31.8108 49.7199 52.8878 49.7199Z" fill="url(#paint1_linear)"/>
<path d="M52.8877 41.771C62.5229 41.771 75.4099 38.1578 76.9756 34.5446C77.6983 32.9789 77.0961 27.8 76.9756 22.5006C76.8552 15.9969 76.8552 9.25228 75.7713 8.04789C73.8442 5.87998 67.7018 9.6136 52.8877 9.6136C38.0737 9.6136 31.9312 5.87998 30.0042 8.04789C28.9203 9.25228 29.0407 15.9969 28.7998 22.5006C28.6794 27.9204 28.0772 33.0993 28.7998 34.7855C30.3655 38.3987 43.2526 41.771 52.8877 41.771Z" fill="#6FDA44"/>
<path d="M44.2162 31.895L40.603 31.1723C40.0008 31.0519 39.6395 30.5701 39.6395 29.9679V16.7196C39.6395 15.9969 40.3621 15.3947 41.0847 15.5152L44.6979 16.2378C45.3001 16.3583 45.6614 16.84 45.6614 17.4422V30.6906C45.6614 31.4132 44.9388 32.0154 44.2162 31.895Z" fill="white"/>
<path d="M77.578 36.2308C76.0122 39.844 62.523 43.2163 52.8878 43.2163C43.2527 43.2163 29.7635 39.844 28.1977 36.2308C26.632 32.6176 27.2342 9.97494 29.1613 7.80703C29.5226 7.32527 30.2452 7.20483 31.0883 7.20483C29.5226 12.3837 29.2817 31.1723 30.6065 34.4242C32.1722 38.0374 43.2527 40.5666 52.8878 40.5666C62.523 40.5666 73.6035 38.0374 75.1692 34.4242C76.494 31.1723 76.2531 12.3837 74.6874 7.20483C75.5305 7.20483 76.1327 7.44571 76.6144 7.80703C78.5415 10.0954 79.0232 32.738 77.578 36.2308Z" fill="#FEB538"/>
<path d="M61.5595 31.895L65.1727 31.1723C65.7749 31.0519 66.1362 30.5701 66.1362 29.9679V16.7196C66.1362 15.9969 65.4136 15.3947 64.691 15.5152L61.0778 16.2378C60.4756 16.3583 60.1143 16.84 60.1143 17.4422V30.6906C60.1143 31.4132 60.8369 32.0154 61.5595 31.895Z" fill="white"/>
<path d="M52.8878 78.2642C83.7203 78.2642 96.9687 61.6435 98.0526 58.1507C98.8957 55.3806 99.1366 48.8769 97.9322 41.6505C97.9322 47.7929 98.0526 53.6945 96.6074 57.0668C95.0417 60.4391 83.8408 75.6145 53.0082 75.6145C22.1757 75.6145 10.7339 60.4391 9.16823 57.0668C7.72295 53.6945 7.84339 47.7929 7.84339 41.6505C6.639 48.8769 6.87988 55.3806 7.72295 58.1507C8.80691 61.6435 22.0553 78.2642 52.8878 78.2642Z" fill="#CF5821"/>
</g>
<defs>
<linearGradient id="paint0_linear" x1="52.8812" y1="77.9089" x2="52.8812" y2="21.4538" gradientUnits="userSpaceOnUse">
<stop stop-color="#E36F27"/>
<stop offset="1" stop-color="#F0972B"/>
</linearGradient>
<linearGradient id="paint1_linear" x1="52.8813" y1="48.9494" x2="52.8813" y2="-18.5671" gradientUnits="userSpaceOnUse">
<stop stop-color="#E36F27"/>
<stop offset="1" stop-color="#F0972B"/>
</linearGradient>
</defs>
</svg>
