<?xml version="1.0" encoding="utf-8"?>
<!-- Generator: Adobe Illustrator 18.1.0, SVG Export Plug-In . SVG Version: 6.00 Build 0)  -->
<svg version="1.1" id="Layer_1" xmlns="http://www.w3.org/2000/svg" xmlns:xlink="http://www.w3.org/1999/xlink" x="0px" y="0px"
	 viewBox="0 0 268 64" enable-background="new 0 0 268 64" xml:space="preserve">
<g>
	<path fill="#3D59E8" d="M52,28v8c0,4.4-3.6,8-8,8H28v-4h16c2.2,0,4-1.8,4-4v-8c0-2.2-1.8-4-4-4H28v-4h16C48.4,20,52,23.6,52,28z"/>
	<rect x="28" y="20" fill="#3D59E8" width="4" height="44"/>
	<rect x="188" fill="#3D59E8" width="4" height="44"/>
	<path fill="#3D59E8" d="M180,28c0-2.2-1.8-4-4-4h-16v-4h16c4.4,0,8,3.6,8,8H180z"/>
	<rect x="160" y="20" fill="#3D59E8" width="4" height="24"/>
	<path fill="#3D59E8" d="M200,34c4.4,0,8-3.6,8-8v-6h-4v6c0,2.2-1.8,4-4,4h-12v4H200z"/>
	<path fill="#3D59E8" d="M212,38c0-4.4-3.6-8-8-8h-16v4h16c2.2,0,4,1.8,4,4v6h4V38z"/>
	<path fill="#3D59E8" d="M24,20v16c0,4.4-3.6,8-8,8H8c-4.4,0-8-3.6-8-8V20h4v16c0,2.2,1.8,4,4,4h8c2.2,0,4-1.8,4-4V20H24z"/>
	<path fill="#3D59E8" d="M100,20v16c0,4.4-3.6,8-8,8h-8c-4.4,0-8-3.6-8-8V20h4v16c0,2.2,1.8,4,4,4h8c2.2,0,4-1.8,4-4V20H100z"/>
	<path fill="#3D59E8" d="M80,20v16c0,4.4-3.6,8-8,8h-8c-4.4,0-8-3.6-8-8V20h4v16c0,2.2,1.8,4,4,4h8c2.2,0,4-1.8,4-4V20H80z"/>
	<path fill="#6BDA42" d="M131,36h-2c-0.6,0-1-0.4-1-1v-6c0-0.6,0.4-1,1-1h2c0.6,0,1,0.4,1,1v6C132,35.6,131.6,36,131,36z"/>
	<path fill="#6BDA42" d="M147,36h-2c-0.6,0-1-0.4-1-1v-6c0-0.6,0.4-1,1-1h2c0.6,0,1,0.4,1,1v6C148,35.6,147.6,36,147,36z"/>
	<path fill="#3D59E8" d="M232,34c4.4,0,8-3.6,8-8v-6h-16c-4.4,0-8,3.6-8,8v8c0,4.4,3.6,8,8,8h8c4.4,0,8-3.6,8-8h-4c0,2.2-1.8,4-4,4
		h-8c-2.2,0-4-1.8-4-4v-2H232z M220,28c0-2.2,1.8-4,4-4h12v2c0,2.2-1.8,4-4,4h-12V28z"/>
	<path fill="#3D59E8" d="M260,34c4.4,0,8-3.6,8-8v-6h-16c-4.4,0-8,3.6-8,8v8c0,4.4,3.6,8,8,8h8c4.4,0,8-3.6,8-8h-4c0,2.2-1.8,4-4,4
		h-8c-2.2,0-4-1.8-4-4v-2H260z M248,28c0-2.2,1.8-4,4-4h12v2c0,2.2-1.8,4-4,4h-12V28z"/>
	<g>
		<g>
			<path fill="#6BDA42" d="M104,24v16c0,4.4,3.6,8,8,8h36c4.4,0,8-3.6,8-8V24c0-4.4-3.6-8-8-8h-36C107.6,16,104,19.6,104,24z
				 M148,44h-36c-2.2,0-4-1.8-4-4V24c0-2.2,1.8-4,4-4h36c2.2,0,4,1.8,4,4v16C152,42.2,150.2,44,148,44z"/>
		</g>
	</g>
</g>
</svg>
